<svg width="16" height="14" viewBox="0 0 16 14" fill="none" xmlns="http://www.w3.org/2000/svg">
    <path
        d="M2.02514 2.02945C1.70013 2.35582 1.44232 2.74328 1.26642 3.1697C1.09053 3.59613 1 4.05317 1 4.51473C1 4.97629 1.09053 5.43333 1.26642 5.85976C1.44232 6.28618 1.70013 6.67364 2.02514 7.00002L8.00001 13L13.9749 7.00002C14.6313 6.34088 15 5.44689 15 4.51473C15 3.58257 14.6313 2.68859 13.9749 2.02945C13.3185 1.37031 12.4283 1.00001 11.5 1.00001C10.5717 1.00001 9.68149 1.37031 9.02511 2.02945L8.00001 3.05886L6.9749 2.02945C6.64989 1.70307 6.26406 1.44418 5.83941 1.26754C5.41477 1.09091 4.95965 1 4.50002 1C4.04039 1 3.58526 1.09091 3.16062 1.26754C2.73598 1.44418 2.35014 1.70307 2.02514 2.02945V2.02945Z"
        stroke="#464447" stroke-linecap="round" stroke-linejoin="round" />
</svg>
