<svg width="16" height="20" viewBox="0 0 16 20" fill="none" xmlns="http://www.w3.org/2000/svg">
    <path
        d="M14.8172 12.753L14.8159 12.7508L13.8017 11.0908L13.7949 11.0797L13.795 11.0796C13.6596 10.8443 13.5445 10.5325 13.4635 10.2375C13.3829 9.94376 13.3227 9.61797 13.3227 9.35016L13.3227 6.8207L13.3227 6.82016M14.8172 12.753L10.4049 1.49016C11.4268 1.96978 12.2902 2.72489 12.895 3.66813C13.4999 4.61137 13.8215 5.70419 13.8227 6.82016H13.3227M14.8172 12.753C15.1314 13.2614 15.186 13.8583 14.9783 14.4017C14.7676 14.9531 14.3333 15.372 13.77 15.5545L13.77 15.5545L13.7673 15.5554C11.8523 16.188 9.83644 16.5002 7.81874 16.5002C5.80105 16.5002 3.78603 16.1881 1.87237 15.5461L1.87138 15.5458C1.24199 15.3361 0.794578 14.9139 0.611322 14.4094L0.611339 14.4094L0.609866 14.4055C0.415885 13.8852 0.476468 13.3048 0.811786 12.7503L14.8172 12.753ZM13.3227 6.82016C13.3215 5.80029 13.0275 4.80108 12.4741 3.93803C11.9206 3.07476 11.1298 2.38268 10.1925 1.94279L10.0492 1.87556L9.97074 1.73815C9.75466 1.35985 9.43897 1.04481 9.05593 0.826688C8.67283 0.608536 8.23679 0.495573 7.79346 0.500133L7.78831 0.500186V0.500159C6.86301 0.500159 6.03516 0.993267 5.59651 1.7668L5.52036 1.90109L5.38176 1.96907C3.56427 2.86051 2.31477 4.70299 2.31477 6.82016V9.35016C2.31477 9.61798 2.25461 9.94383 2.17382 10.2368C2.0929 10.5303 1.97718 10.8419 1.83943 11.0747L1.83537 11.0816L1.83531 11.0816L0.812486 12.7491M13.3227 6.82016L0.812486 12.7491M0.812486 12.7491L0.384777 12.4902L1.4091 10.8202C1.62208 10.4602 1.81477 9.76016 1.81477 9.35016V6.82016C1.81477 4.50016 3.18392 2.49016 5.16158 1.52016L0.812486 12.7491ZM5.86112 18.6138C5.91465 18.6191 5.96845 18.624 6.02236 18.6284C6.61175 18.6794 7.21415 18.7102 7.81874 18.7102C8.41391 18.7102 9.00684 18.6793 9.5867 18.6282L9.5896 18.628C9.63566 18.6236 9.68677 18.6195 9.74099 18.6152C9.60268 18.7751 9.4437 18.9183 9.26704 19.0407C8.83742 19.3386 8.32442 19.4993 7.79775 19.5002L5.86112 18.6138ZM5.86112 18.6138C5.90165 18.6593 5.94392 18.7024 5.98779 18.743L5.99698 18.7515L6.00574 18.7605C6.4654 19.2302 7.12553 19.5 7.79768 19.5002L5.86112 18.6138Z"
        stroke="#595959" />
</svg>
