<svg width="14" height="14" viewBox="0 0 14 14" fill="none" xmlns="http://www.w3.org/2000/svg">
    <path d="M6.5693 1.02454H4.18728C2.22828 1.02454 1 2.40891 1 4.36879V9.65574C1 11.6156 2.22254 13 4.18728 13H9.80881C11.7742 13 12.9967 11.6156 12.9967 9.65574V7.0943" stroke="#957255" stroke-linecap="round" stroke-linejoin="round"/>
    <path fill-rule="evenodd" clip-rule="evenodd" d="M4.87123 6.1957L9.63207 1.44355C10.2252 0.852151 11.1865 0.852151 11.7796 1.44355L12.555 2.21745C13.1481 2.80948 13.1481 3.76971 12.555 4.3611L7.77118 9.13615C7.51189 9.39496 7.16023 9.54059 6.79328 9.54059H4.4068L4.46668 7.13685C4.4756 6.78328 4.62022 6.44625 4.87123 6.1957Z" stroke="#957255" stroke-linecap="round" stroke-linejoin="round"/>
    <path d="M8.90933 2.17773L11.8182 5.0813" stroke="#957255" stroke-linecap="round" stroke-linejoin="round"/>
</svg>
