<svg width="14" height="18" viewBox="0 0 14 18" fill="none" xmlns="http://www.w3.org/2000/svg">
    <path d="M12.5049 1.96682H9.88788V1.09738C9.8873 0.806528 9.77681 0.527758 9.58059 0.322091C9.38438 0.116424 9.11843 0.000610405 8.84094 0H4.66016C4.38252 0.000356005 4.11633 0.116057 3.91992 0.321752C3.7235 0.527447 3.61289 0.806362 3.61231 1.09738V1.96682H0.995326C0.731439 1.96713 0.478443 2.07714 0.291846 2.27273C0.10525 2.46832 0.000291696 2.7335 0 3.01011V4.13772C0.000340199 4.41431 0.105314 4.67946 0.2919 4.87504C0.478486 5.07062 0.731454 5.18065 0.995326 5.181H1.00837V16.5478C1.00876 16.9328 1.15482 17.3019 1.41452 17.5741C1.67422 17.8464 2.02634 17.9995 2.39363 18H11.1066C11.4738 17.9995 11.826 17.8464 12.0857 17.5741C12.3454 17.3019 12.4914 16.9328 12.4918 16.5478V5.181H12.5049C12.7687 5.18065 13.0217 5.07061 13.2082 4.87503C13.3948 4.67945 13.4997 4.41429 13.5 4.13772V3.01011C13.4998 2.73352 13.3948 2.46834 13.2083 2.27274C13.0217 2.07715 12.7687 1.96713 12.5049 1.96682V1.96682ZM4.25516 1.09738C4.2555 0.984995 4.29831 0.877324 4.37422 0.797942C4.45012 0.71856 4.55294 0.673934 4.66016 0.673833H8.84002C8.94708 0.674188 9.04967 0.718926 9.12537 0.798281C9.20108 0.877635 9.24376 0.985161 9.2441 1.09738V1.96682H4.25516V1.09738ZM11.849 16.5478C11.8488 16.7541 11.7705 16.952 11.6313 17.0979C11.4921 17.2438 11.3034 17.3259 11.1066 17.3262H2.39363C2.19678 17.3259 2.00806 17.2438 1.86887 17.0979C1.72969 16.952 1.65142 16.7541 1.65122 16.5478V5.181H11.849V16.5478ZM12.8571 4.13772C12.8571 4.23565 12.82 4.32957 12.7539 4.39884C12.6879 4.46811 12.5983 4.50707 12.5049 4.50717H0.995326C0.901875 4.50707 0.81228 4.46811 0.7462 4.39885C0.680121 4.32958 0.642954 4.23567 0.642857 4.13772V3.01011C0.642954 2.91215 0.680121 2.81824 0.7462 2.74898C0.81228 2.67971 0.901875 2.64076 0.995326 2.64065H12.5049C12.5983 2.64076 12.6879 2.67972 12.7539 2.74899C12.82 2.81826 12.8571 2.91217 12.8571 3.01011V4.13772Z" fill="#E30000"/>
</svg>
