<svg width="19" height="18" viewBox="0 0 19 18" fill="none" xmlns="http://www.w3.org/2000/svg">
    <path
        d="M18.7504 3.70653C18.6489 3.5811 18.5213 3.48012 18.3768 3.41088C18.2322 3.34164 18.0744 3.30586 17.9146 3.30612H3.11435L2.63775 0.886041C2.58814 0.63656 2.45534 0.412139 2.26178 0.250701C2.06822 0.0892633 1.82578 0.000707899 1.57542 0H0.361335C0.265503 0 0.173596 0.0387026 0.105833 0.107593C0.0380692 0.176484 0 0.26992 0 0.367347C0 0.464773 0.0380692 0.558209 0.105833 0.6271C0.173596 0.695991 0.265503 0.734694 0.361335 0.734694H1.57542C1.65878 0.734592 1.73961 0.763795 1.80422 0.817355C1.86882 0.870915 1.91322 0.945536 1.92989 1.02857L4.11055 12.1151C4.1932 12.5309 4.41453 12.905 4.73713 13.174C5.05973 13.4431 5.46382 13.5907 5.88109 13.5918H15.7903C16.2102 13.5914 16.6168 13.4425 16.9405 13.1707C17.2642 12.8988 17.4848 12.521 17.5645 12.1019L18.9806 4.61608C19.0107 4.4566 19.0057 4.29231 18.9659 4.13503C18.9261 3.97776 18.8525 3.83141 18.7504 3.70653ZM18.2695 4.47796L16.8534 11.9634C16.8058 12.2147 16.6737 12.4413 16.4798 12.6044C16.2858 12.7674 16.042 12.8568 15.7903 12.8571H5.88217C5.63171 12.8565 5.38913 12.768 5.19544 12.6066C5.00174 12.4452 4.86882 12.2207 4.81913 11.9711L3.25924 4.04082H17.9146C17.9679 4.04081 18.0205 4.05277 18.0686 4.07584C18.1168 4.0989 18.1593 4.1325 18.1932 4.17424C18.2271 4.21597 18.2516 4.2648 18.2647 4.31725C18.2779 4.36969 18.2795 4.42444 18.2695 4.47759V4.47796ZM7.2267 14.3265C6.86937 14.3265 6.52007 14.4343 6.22297 14.6361C5.92586 14.8379 5.69429 15.1248 5.55755 15.4604C5.42081 15.796 5.38503 16.1653 5.45474 16.5216C5.52445 16.8779 5.69652 17.2052 5.94919 17.462C6.20186 17.7189 6.52378 17.8938 6.87424 17.9647C7.2247 18.0356 7.58796 17.9992 7.91809 17.8602C8.24821 17.7212 8.53038 17.4857 8.7289 17.1837C8.92742 16.8816 9.03338 16.5265 9.03338 16.1633C9.0328 15.6763 8.84227 15.2095 8.50358 14.8651C8.16489 14.5208 7.70568 14.3271 7.2267 14.3265ZM7.2267 17.2653C7.0123 17.2653 6.80272 17.2007 6.62446 17.0796C6.4462 16.9585 6.30726 16.7864 6.22521 16.585C6.14316 16.3836 6.1217 16.162 6.16352 15.9483C6.20535 15.7345 6.30859 15.5381 6.46019 15.384C6.61179 15.2299 6.80494 15.1249 7.01522 15.0824C7.2255 15.0399 7.44346 15.0617 7.64153 15.1451C7.83961 15.2285 8.00891 15.3698 8.12802 15.551C8.24713 15.7322 8.31071 15.9453 8.31071 16.1633C8.31071 16.4555 8.1965 16.7359 7.99321 16.9425C7.78992 17.1492 7.5142 17.2653 7.2267 17.2653ZM14.4534 14.3265C14.0961 14.3265 13.7468 14.4343 13.4497 14.6361C13.1526 14.8379 12.921 15.1248 12.7843 15.4604C12.6475 15.796 12.6117 16.1653 12.6814 16.5216C12.7512 16.8779 12.9232 17.2052 13.1759 17.462C13.4286 17.7189 13.7505 17.8938 14.1009 17.9647C14.4514 18.0356 14.8147 17.9992 15.1448 17.8602C15.4749 17.7212 15.7571 17.4857 15.9556 17.1837C16.1541 16.8816 16.2601 16.5265 16.2601 16.1633C16.2595 15.6763 16.069 15.2095 15.7303 14.8651C15.3916 14.5208 14.9324 14.3271 14.4534 14.3265ZM14.4534 17.2653C14.239 17.2653 14.0294 17.2007 13.8512 17.0796C13.6729 16.9585 13.534 16.7864 13.4519 16.585C13.3699 16.3836 13.3484 16.162 13.3902 15.9483C13.4321 15.7345 13.5353 15.5381 13.6869 15.384C13.8385 15.2299 14.0316 15.1249 14.2419 15.0824C14.4522 15.0399 14.6702 15.0617 14.8682 15.1451C15.0663 15.2285 15.2356 15.3698 15.3547 15.551C15.4738 15.7322 15.5374 15.9453 15.5374 16.1633C15.5374 16.4555 15.4232 16.7359 15.2199 16.9425C15.0166 17.1492 14.7409 17.2653 14.4534 17.2653ZM13.7307 8.44898C13.7307 8.54641 13.6927 8.63984 13.6249 8.70873C13.5571 8.77762 13.4652 8.81633 13.3694 8.81633H11.2014V11.0204C11.2014 11.1178 11.1633 11.2113 11.0956 11.2802C11.0278 11.3491 10.9359 11.3878 10.8401 11.3878C10.7442 11.3878 10.6523 11.3491 10.5845 11.2802C10.5168 11.2113 10.4787 11.1178 10.4787 11.0204V8.81633H8.31071C8.21487 8.81633 8.12297 8.77762 8.0552 8.70873C7.98744 8.63984 7.94937 8.54641 7.94937 8.44898C7.94937 8.35155 7.98744 8.25812 8.0552 8.18923C8.12297 8.12033 8.21487 8.08163 8.31071 8.08163H10.4787V5.87755C10.4787 5.78012 10.5168 5.68669 10.5845 5.6178C10.6523 5.54891 10.7442 5.5102 10.8401 5.5102C10.9359 5.5102 11.0278 5.54891 11.0956 5.6178C11.1633 5.68669 11.2014 5.78012 11.2014 5.87755V8.08163H13.3694C13.4652 8.08163 13.5571 8.12033 13.6249 8.18923C13.6927 8.25812 13.7307 8.35155 13.7307 8.44898Z"
        fill="#ffffff" />
</svg>
