<svg width="20" height="20" viewBox="0 0 20 20" fill="none" xmlns="http://www.w3.org/2000/svg">
    <path d="M0.845086 2.52256e-08C0.620955 2.52256e-08 0.406004 0.0916146 0.24752 0.25469C0.0890356 0.417765 0 0.638942 0 0.869565C0 1.10019 0.0890356 1.32137 0.24752 1.48444C0.406004 1.64752 0.620955 1.73913 0.845086 1.73913H2.34934C2.47218 1.73935 2.59185 1.77925 2.69146 1.8532C2.79108 1.92716 2.86562 2.03143 2.90456 2.1513L5.69081 10.7539C5.81503 11.1365 5.83025 11.547 5.7356 11.9383L5.50658 12.8835C5.16939 14.2696 6.21814 15.6522 7.60577 15.6522H17.7468C17.9709 15.6522 18.1859 15.5606 18.3444 15.3975C18.5028 15.2344 18.5919 15.0132 18.5919 14.7826C18.5919 14.552 18.5028 14.3308 18.3444 14.1677C18.1859 14.0047 17.9709 13.913 17.7468 13.913H7.60577C7.27619 13.913 7.06492 13.6348 7.1452 13.307L7.31844 12.5957C7.34763 12.4753 7.41503 12.3685 7.50995 12.2921C7.60488 12.2157 7.72188 12.1741 7.84239 12.1739H16.9017C17.0793 12.1741 17.2524 12.1168 17.3965 12.01C17.5407 11.9033 17.6484 11.7525 17.7045 11.5791L19.9567 4.62261C19.999 4.49188 20.0105 4.35268 19.9903 4.21648C19.9701 4.08028 19.9187 3.95097 19.8404 3.83921C19.762 3.72746 19.659 3.63645 19.5398 3.57369C19.4206 3.51094 19.2886 3.47823 19.1547 3.47826H5.53954C5.41655 3.47822 5.29669 3.43841 5.19691 3.36444C5.09712 3.29048 5.02246 3.1861 4.98347 3.06609L4.18233 0.594783C4.12626 0.42156 4.01862 0.270892 3.87468 0.164137C3.73073 0.0573819 3.55778 -4.39397e-05 3.38034 2.52256e-08H0.845086ZM6.76068 16.5217C6.31242 16.5217 5.88252 16.705 5.56555 17.0311C5.24858 17.3573 5.07051 17.7996 5.07051 18.2609C5.07051 18.7221 5.24858 19.1645 5.56555 19.4906C5.88252 19.8168 6.31242 20 6.76068 20C7.20895 20 7.63885 19.8168 7.95582 19.4906C8.27279 19.1645 8.45086 18.7221 8.45086 18.2609C8.45086 17.7996 8.27279 17.3573 7.95582 17.0311C7.63885 16.705 7.20895 16.5217 6.76068 16.5217ZM16.9017 16.5217C16.4535 16.5217 16.0236 16.705 15.7066 17.0311C15.3896 17.3573 15.2115 17.7996 15.2115 18.2609C15.2115 18.7221 15.3896 19.1645 15.7066 19.4906C16.0236 19.8168 16.4535 20 16.9017 20C17.35 20 17.7799 19.8168 18.0968 19.4906C18.4138 19.1645 18.5919 18.7221 18.5919 18.2609C18.5919 17.7996 18.4138 17.3573 18.0968 17.0311C17.7799 16.705 17.35 16.5217 16.9017 16.5217Z"
        fill="#ffffff"
        stroke="#9B9B9B"
    />
</svg>
