<svg width="17" height="17" viewBox="0 0 17 17" fill="none" xmlns="http://www.w3.org/2000/svg">
    <path d="M11.825 0H4.84167C1.80833 0 0 1.80833 0 4.84167V11.8167C0 14.8583 1.80833 16.6667 4.84167 16.6667H11.8167C14.85 16.6667 16.6583 14.8583 16.6583 11.825V4.84167C16.6667 1.80833 14.8583 0 11.825 0ZM11.6667 8.95833H8.95833V11.6667C8.95833 12.0083 8.675 12.2917 8.33333 12.2917C7.99167 12.2917 7.70833 12.0083 7.70833 11.6667V8.95833H5C4.65833 8.95833 4.375 8.675 4.375 8.33333C4.375 7.99167 4.65833 7.70833 5 7.70833H7.70833V5C7.70833 4.65833 7.99167 4.375 8.33333 4.375C8.675 4.375 8.95833 4.65833 8.95833 5V7.70833H11.6667C12.0083 7.70833 12.2917 7.99167 12.2917 8.33333C12.2917 8.675 12.0083 8.95833 11.6667 8.95833Z" fill="#957255"/>
</svg>
